<svg xmlns="http://www.w3.org/2000/svg" viewBox="0 0 53.962 41.121"><defs><style>.a{fill:#e00303;}</style></defs><path class="a" d="M4.743,27.9a1.059,1.059,0,0,1,.622.587l.45,1.084a1.047,1.047,0,0,1-.039.818L3.981,33.327a1.815,1.815,0,0,0,.212,2.1l1.52,1.518a1.87,1.87,0,0,0,2.072.186l2.934-1.795a1.034,1.034,0,0,1,.854-.023l1.083.447a1.049,1.049,0,0,1,.551.608l.805,3.345a1.857,1.857,0,0,0,1.575,1.359s.446.041,1.114.041,1.114-.041,1.115-.041a1.855,1.855,0,0,0,1.574-1.359l.807-3.345a1.058,1.058,0,0,1,.586-.62l1.084-.45a1.12,1.12,0,0,1,.818.039l2.934,1.795a1.707,1.707,0,0,0,.894.242,1.8,1.8,0,0,0,1.2-.452l1.518-1.52a1.807,1.807,0,0,0,.186-2.072l-1.795-2.934a1.063,1.063,0,0,1-.023-.854l.447-1.083a1.049,1.049,0,0,1,.608-.551L32,27.1a1.857,1.857,0,0,0,1.359-1.575s.041-.446.041-1.114-.041-1.114-.041-1.115A1.858,1.858,0,0,0,32,21.722l-3.344-.8a1.059,1.059,0,0,1-.622-.587l-.45-1.084a1.047,1.047,0,0,1,.039-.818l1.795-2.934a1.815,1.815,0,0,0-.212-2.1l-1.52-1.518a1.866,1.866,0,0,0-2.072-.186l-2.934,1.795a1.034,1.034,0,0,1-.854.023l-1.083-.447a1.047,1.047,0,0,1-.55-.608l-.807-3.345A1.857,1.857,0,0,0,17.816,7.75s-.448-.04-1.116-.04-1.114.041-1.115.041A1.858,1.858,0,0,0,14.01,9.11l-.8,3.342a1.059,1.059,0,0,1-.587.622l-1.084.45a1.126,1.126,0,0,1-.818-.039L7.783,11.691a1.842,1.842,0,0,0-2.1.211l-1.518,1.52a1.807,1.807,0,0,0-.186,2.072l1.795,2.934a1.063,1.063,0,0,1,.023.854L5.35,20.364a1.049,1.049,0,0,1-.608.551L1.4,21.721A1.857,1.857,0,0,0,.039,23.3S0,23.741,0,24.409s.041,1.114.041,1.115A1.858,1.858,0,0,0,1.4,27.1l3.342.8ZM1.285,24.409c0-.588.035-.985.036-1a.6.6,0,0,1,.38-.442l3.345-.805a2.3,2.3,0,0,0,1.506-1.345l.416-1.011a2.311,2.311,0,0,0-.1-2.051L5.077,14.824A.557.557,0,0,1,5.1,14.3l1.466-1.467a.579.579,0,0,1,.549-.049l2.934,1.795a2.419,2.419,0,0,0,2.014.113l1.012-.419a2.312,2.312,0,0,0,1.381-1.521l.8-3.344a.6.6,0,0,1,.442-.382c.013,0,.41-.035,1-.035s.985.035,1,.036a.6.6,0,0,1,.442.38l.805,3.344a2.294,2.294,0,0,0,1.345,1.507l1.011.416a2.358,2.358,0,0,0,2.051-.1l2.933-1.795a.649.649,0,0,1,.522.023l1.467,1.466a.549.549,0,0,1,.049.549l-1.795,2.934a2.294,2.294,0,0,0-.113,2.014l.419,1.012a2.312,2.312,0,0,0,1.521,1.381l3.344.8a.6.6,0,0,1,.382.442c0,.013.035.41.035,1s-.035.985-.036,1a.6.6,0,0,1-.38.442l-3.345.805A2.3,2.3,0,0,0,26.848,28l-.416,1.011a2.311,2.311,0,0,0,.1,2.051l1.795,2.933a.557.557,0,0,1-.023.522l-1.466,1.467a.511.511,0,0,1-.322.1.444.444,0,0,1-.225-.053l-2.934-1.795a2.423,2.423,0,0,0-2.014-.113l-1.012.419a2.31,2.31,0,0,0-1.38,1.521l-.805,3.344a.6.6,0,0,1-.442.382c-.014,0-.411.035-1,.035s-.985-.035-1-.036a.6.6,0,0,1-.442-.38l-.805-3.345a2.3,2.3,0,0,0-1.345-1.506L12.1,34.141a2.1,2.1,0,0,0-.918-.2,2.2,2.2,0,0,0-1.133.293L7.114,36.033a.654.654,0,0,1-.522-.023L5.125,34.543a.549.549,0,0,1-.049-.549l1.795-2.934a2.294,2.294,0,0,0,.113-2.014l-.419-1.012a2.312,2.312,0,0,0-1.521-1.381l-3.344-.8a.6.6,0,0,1-.382-.442c0-.013-.035-.41-.035-1ZM16.7,31.474a7.065,7.065,0,1,0-7.065-7.065A7.073,7.073,0,0,0,16.7,31.474Zm0-12.846a5.781,5.781,0,1,1-5.781,5.781A5.788,5.788,0,0,1,16.7,18.629Zm18.6-11.8a.545.545,0,0,1-.333.177l-2.391-.023a1.491,1.491,0,0,0-1.353.958s-.105.3-.221.758-.164.772-.164.772a1.491,1.491,0,0,0,.75,1.491l2.108,1.1a.559.559,0,0,1,.213.351l.119.816a.547.547,0,0,1-.108.36l-1.7,1.665a1.461,1.461,0,0,0-.244,1.687l.769,1.285a1.486,1.486,0,0,0,1.581.55l2.343-.717a.555.555,0,0,1,.326.107l.662.488a.552.552,0,0,1,.177.333l-.023,2.379a1.488,1.488,0,0,0,.958,1.366s.3.105.758.221.772.164.772.164c.033.005.167.015.2.015a1.5,1.5,0,0,0,1.291-.766l1.1-2.108a.559.559,0,0,1,.351-.213l.852-.123a.561.561,0,0,1,.322.11l1.665,1.7a1.428,1.428,0,0,0,1.687.244l1.283-.769a1.454,1.454,0,0,0,.551-1.581l-.709-2.27a.556.556,0,0,1,.1-.4l.488-.662a.545.545,0,0,1,.333-.177l2.391.023a1.491,1.491,0,0,0,1.353-.958s.105-.3.221-.758.164-.772.164-.772a1.491,1.491,0,0,0-.75-1.491l-2.108-1.1a.559.559,0,0,1-.213-.351l-.118-.813a.547.547,0,0,1,.108-.36l1.7-1.665a1.461,1.461,0,0,0,.244-1.687L52.038,4.9a1.488,1.488,0,0,0-1.581-.551l-2.344.717a.555.555,0,0,1-.326-.107l-.662-.488a.552.552,0,0,1-.177-.333l.023-2.379A1.488,1.488,0,0,0,46.012.392s-.3-.105-.758-.221-.772-.164-.772-.164c-.033,0-.167-.014-.2-.014a1.5,1.5,0,0,0-1.291.766l-1.1,2.108a.559.559,0,0,1-.351.213l-.852.122a.561.561,0,0,1-.322-.11L38.7,1.392a1.429,1.429,0,0,0-1.687-.244l-1.285.768A1.454,1.454,0,0,0,35.174,3.5l.709,2.27a.556.556,0,0,1-.1.4l-.487.662Zm1.053.735.441-.6a1.78,1.78,0,0,0,.319-1.579L36.4,3.117c-.006-.036.022-.117.015-.118l1.218-.73.145.022,1.666,1.7a1.815,1.815,0,0,0,1.24.5,1.214,1.214,0,0,0,.262-.024l.739-.109a1.79,1.79,0,0,0,1.34-.891l1.1-2.107a.238.238,0,0,1,.154-.078c.014,0,.276.045.659.14s.633.182.645.188a.233.233,0,0,1,.1.141l-.023,2.379a1.775,1.775,0,0,0,.728,1.4l.6.441a1.81,1.81,0,0,0,1.579.319l2.279-.709c.054,0,.114.033.107.017l.73,1.218a.2.2,0,0,1-.022.145l-1.7,1.666a1.768,1.768,0,0,0-.471,1.5l.108.739a1.788,1.788,0,0,0,.893,1.34L52.6,13.3a.242.242,0,0,1,.078.154c0,.014-.045.276-.14.659s-.182.633-.188.645a.233.233,0,0,1-.141.1l-2.392-.023a1.782,1.782,0,0,0-1.386.728l-.439.6a1.78,1.78,0,0,0-.319,1.579l.708,2.269c.006.035-.022.117-.015.118l-1.218.73L47,20.836l-1.666-1.7a1.815,1.815,0,0,0-1.24-.5,1.214,1.214,0,0,0-.262.024l-.739.109a1.79,1.79,0,0,0-1.34.892l-1.1,2.107a.238.238,0,0,1-.154.078h0c-.014,0-.276-.045-.659-.14s-.633-.182-.645-.188a.233.233,0,0,1-.1-.141L39.118,19a1.775,1.775,0,0,0-.728-1.4l-.6-.441a1.781,1.781,0,0,0-1.124-.385,1.534,1.534,0,0,0-.456.067l-2.279.709c-.055,0-.116-.03-.107-.017L33.1,16.32a.2.2,0,0,1,.022-.145l1.7-1.666a1.768,1.768,0,0,0,.471-1.5l-.108-.737a1.788,1.788,0,0,0-.893-1.34l-2.107-1.1a.242.242,0,0,1-.078-.154c0-.014.045-.276.14-.659s.182-.633.188-.645a.233.233,0,0,1,.141-.1l2.392.023a1.782,1.782,0,0,0,1.386-.728Zm6.041,7.854a3.854,3.854,0,1,0-3.854-3.854A3.858,3.858,0,0,0,42.391,15.417Zm0-6.423a2.569,2.569,0,1,1-2.569,2.569A2.572,2.572,0,0,1,42.391,8.994Z" transform="translate(0 0.008)"/></svg>