<svg xmlns="http://www.w3.org/2000/svg" viewBox="0 0 40.866 41.121"><defs><style>.a{fill:#e00303;}</style></defs><path class="a" d="M39.564,9.347,24.669.94a8.708,8.708,0,0,0-7.542,0L2.232,9.347A3,3,0,0,0,.466,11.885a3,3,0,0,0,1.765,2.537l14.9,8.408a7.8,7.8,0,0,0,3.771.888,7.818,7.818,0,0,0,3.772-.888l14.9-8.408a3,3,0,0,0,1.767-2.537,3.005,3.005,0,0,0-1.767-2.538Zm-.679,3.875L23.99,21.63a7.4,7.4,0,0,1-6.186,0l-14.9-8.408c-.676-.382-1.063-.87-1.063-1.337s.387-.955,1.063-1.338L17.8,2.139a6.5,6.5,0,0,1,3.092-.71,6.515,6.515,0,0,1,3.093.71l14.9,8.408c.676.382,1.065.87,1.065,1.338S39.563,12.84,38.885,13.222Zm.679,4.947a.69.69,0,1,0-.679,1.2c.676.382,1.065.87,1.065,1.337s-.388.955-1.065,1.337l-14.9,8.408a7.094,7.094,0,0,1-6.186,0l-14.9-8.408c-.676-.382-1.063-.87-1.063-1.337s.387-.955,1.063-1.337a.69.69,0,1,0-.679-1.2A3,3,0,0,0,.465,20.708,3,3,0,0,0,2.23,23.246l14.9,8.408a7.827,7.827,0,0,0,3.771.9,7.817,7.817,0,0,0,3.772-.9l14.9-8.408a3,3,0,0,0,1.767-2.538,3,3,0,0,0-1.765-2.538Zm0,8.652a.69.69,0,1,0-.679,1.2c.676.382,1.065.87,1.065,1.337s-.388.955-1.065,1.338l-14.9,8.408a7.094,7.094,0,0,1-6.186,0L2.909,30.7c-.676-.382-1.063-.87-1.063-1.338s.387-.955,1.063-1.337a.69.69,0,1,0-.679-1.2A3,3,0,0,0,.466,29.36,3,3,0,0,0,2.232,31.9l14.9,8.408a7.827,7.827,0,0,0,3.771.9,7.814,7.814,0,0,0,3.772-.9l14.9-8.408a3,3,0,0,0,1.767-2.538,3,3,0,0,0-1.767-2.538Z" transform="translate(-0.465 -0.081)"/></svg>