<svg xmlns="http://www.w3.org/2000/svg" viewBox="0 0 55.99 55.99"><defs><style>.a{fill:#e00303;}</style></defs><path class="a" d="M29.458,28.21C18.667,31.7,12.925,41.205,12.451,42.017A20.838,20.838,0,0,1,7.072,28.026q0-.32.01-.64a77.187,77.187,0,0,0,21.5-2.978c.6,1.172,1.171,2.362,1.7,3.55q-.415.118-.824.248ZM41.865,12.376c-.376.535-3.526,4.77-10.965,7.559A111.561,111.561,0,0,0,23.092,7.686a20.9,20.9,0,0,1,18.772,4.691ZM26.858,21.192A78.089,78.089,0,0,1,7.515,23.742,21,21,0,0,1,19.1,9.091a133.777,133.777,0,0,1,7.758,12.1Zm4.708,10.274.138-.047a86.994,86.994,0,0,1,4.463,15.866,20.9,20.9,0,0,1-21.015-2.754c.376-.77,4.612-8.953,16.414-13.067ZM46.585,0H9.4A9.433,9.433,0,0,0,0,9.4V46.585a9.433,9.433,0,0,0,9.4,9.4H46.585a9.433,9.433,0,0,0,9.4-9.4V9.4A9.433,9.433,0,0,0,46.585,0ZM27.995,52.491a24.5,24.5,0,1,1,24.5-24.5A24.523,24.523,0,0,1,27.995,52.491ZM35.62,30.453a30.716,30.716,0,0,1,13.033.894,20.96,20.96,0,0,1-8.969,14.024A90.412,90.412,0,0,0,35.62,30.453Zm-3.113-7.408c7.735-3.158,11.242-7.653,11.683-8.25a20.827,20.827,0,0,1,4.724,13.033,48.944,48.944,0,0,0-14.57-.674c-.147-.359-.3-.717-.451-1.08-.434-1.02-.9-2.033-1.388-3.03Z"/></svg>