<svg xmlns="http://www.w3.org/2000/svg" xmlns:xlink="http://www.w3.org/1999/xlink" viewBox="0 0 173 173"><defs><style>.a{fill:none;}.b{fill:#fff;}.c{clip-path:url(#a);}.d,.e{fill:#00137b;}.d{font-size:178px;font-family:HelveticaNeue-Bold, Helvetica Neue;font-weight:700;}.e{stroke:#fff;}.f{stroke:none;}</style><clipPath id="a"><rect class="a" width="102.66" height="102.063"/></clipPath></defs><g transform="translate(-1435 -7372)"><circle class="b" cx="86.5" cy="86.5" r="86.5" transform="translate(1435 7372)"/><g transform="translate(77 7007)"><g transform="translate(1393 400)"><g class="c"><text class="d" transform="translate(51 97.005)"><tspan x="-51.086" y="0">e</tspan></text></g><g class="e" transform="translate(11.34 19.099)"><rect class="f" width="15.518" height="11.937"/><rect class="a" x="0.5" y="0.5" width="14.518" height="10.937"/></g><g class="e" transform="translate(0.597 40.586)"><rect class="f" width="15.518" height="11.937"/><rect class="a" x="0.5" y="0.5" width="14.518" height="10.937"/></g><g class="e" transform="translate(19.099 40.586)"><rect class="f" width="26.262" height="19.696"/><rect class="a" x="0.5" y="0.5" width="25.262" height="18.696"/></g><g class="e" transform="translate(0.597 62.67)"><rect class="f" width="26.262" height="19.696"/><rect class="a" x="0.5" y="0.5" width="25.262" height="18.696"/></g><g class="e" transform="translate(29.246 76.398)"><rect class="f" width="37.005" height="25.665"/><rect class="a" x="0.5" y="0.5" width="36.005" height="24.665"/></g></g><g transform="translate(1394.396 466.251)"><path class="b" d="M3043.339,798.621s3.846-5.752,7.638-7.165,3.323,3.347,7.529,1.514,9.3-8.845,9.3-8.845v14.5Z" transform="translate(-3043.339 -783.466)"/><ellipse class="b" cx="1.46" cy="1.463" rx="1.46" ry="1.463" transform="translate(16.148 0)"/><path class="b" d="M3043.339,802.207s7.624-9.547,12.666-9.933,6.826,2.912,9.047,2.884,13.307-11.033,13.307-11.033v18.082Z" transform="translate(-3014.563 -767.652)"/><circle class="b" cx="2.387" cy="2.387" r="2.387" transform="translate(52.346 16.115)"/></g></g></g></svg>