<svg xmlns="http://www.w3.org/2000/svg" xmlns:xlink="http://www.w3.org/1999/xlink" viewBox="0 0 173 173"><defs><style>.a{fill:none;}.b{fill:#fff;}.c{fill:#f90000;}.d{fill:red;}.e{clip-path:url(#a);}.f{fill:#fdfcfc;font-size:92px;font-family:HelveticaNeue-Medium, Helvetica Neue;font-weight:500;}</style><clipPath id="a"><rect class="a" width="51.922" height="58.579" transform="translate(0)"/></clipPath></defs><g transform="translate(-1686 -7916)"><circle class="b" cx="86.5" cy="86.5" r="86.5" transform="translate(1686 7916)"/><circle class="c" cx="25.961" cy="25.961" r="25.961" transform="translate(1746.982 7965.313)"/><path class="d" d="M39.827,104.181C33.57,98.59,2.55,69.331,2.55,40.277a37.277,37.277,0,1,1,74.555,0C77.1,69.823,46.1,98.671,39.827,104.181Zm0-85.205c-11.235,0-19.97,10.066-19.97,21.3a19.712,19.712,0,0,0,19.97,19.97A19.712,19.712,0,0,0,59.8,40.277C59.8,29.042,51.062,18.976,39.827,18.976ZM22.52,40.277A17.574,17.574,0,0,1,39.827,22.97,17.574,17.574,0,0,1,57.135,40.277C57.135,49.638,22.52,49.638,22.52,40.277Z" transform="translate(1732.45 7949)"/><g class="e" transform="translate(1746.982 7963.982)"><text class="f" transform="translate(-1.331 51.391)"><tspan x="0" y="0">e</tspan></text></g></g></svg>