<svg xmlns="http://www.w3.org/2000/svg" viewBox="0 0 51.682 39.377"><defs><style>.a{fill:#e00303;}</style></defs><path class="a" d="M51.067,12.305a.615.615,0,0,0-.615.615V37.531a.615.615,0,0,1-.615.615H1.846a.615.615,0,0,1-.615-.615V12.921a.615.615,0,1,0-1.231,0V37.531a1.848,1.848,0,0,0,1.846,1.846H49.836a1.848,1.848,0,0,0,1.846-1.846V12.921A.615.615,0,0,0,51.067,12.305ZM49.836,0H1.846A1.848,1.848,0,0,0,0,1.846V9.229a.615.615,0,0,0,.615.615H51.067a.615.615,0,0,0,.615-.615V1.846A1.848,1.848,0,0,0,49.836,0Zm.615,8.614H1.231V1.846a.615.615,0,0,1,.615-.615H49.836a.615.615,0,0,1,.615.615ZM21.534,34.455a.615.615,0,0,0,.615-.615V14.151a.615.615,0,0,0-.615-.615h-16a.615.615,0,0,0-.615.615V33.839a.615.615,0,0,0,.615.615ZM6.153,14.766H20.919V33.224H6.153Zm21.534,3.692H46.145a.615.615,0,1,0,0-1.231H27.687a.615.615,0,1,0,0,1.231Zm0,6.153H46.145a.615.615,0,1,0,0-1.231H27.687a.615.615,0,0,0,0,1.231Zm0,6.153H46.145a.615.615,0,1,0,0-1.231H27.687a.615.615,0,0,0,0,1.231Zm-24-25.841A1.231,1.231,0,1,0,4.922,3.692,1.231,1.231,0,0,0,3.692,4.922Zm4.922,0A1.231,1.231,0,1,0,9.844,3.692,1.231,1.231,0,0,0,8.614,4.922Zm4.922,0a1.231,1.231,0,1,0,1.231-1.231A1.231,1.231,0,0,0,13.536,4.922Z"/></svg>