<svg xmlns="http://www.w3.org/2000/svg" viewBox="0 0 55.895 55.894"><defs><style>.a{fill:#e00303;}</style></defs><path class="a" d="M27.947,0A27.947,27.947,0,1,0,55.894,27.947,27.946,27.946,0,0,0,27.947,0Zm16.6,44.544a23.4,23.4,0,0,1-7.462,5.032q-1.064.451-2.162.791V46.179a5.477,5.477,0,0,0-2.265-4.858,24.281,24.281,0,0,0,2.606-.383,19.849,19.849,0,0,0,2.512-.709,12.369,12.369,0,0,0,2.374-1.106,9.962,9.962,0,0,0,2.019-1.665,9.705,9.705,0,0,0,1.624-2.32,12.753,12.753,0,0,0,1.038-3.111,19.41,19.41,0,0,0,.383-4,10.217,10.217,0,0,0-2.756-7.205,9.535,9.535,0,0,0-.272-7.123l-.683-.082a6.73,6.73,0,0,0-2.552.6,19.993,19.993,0,0,0-4.134,2.238,25.1,25.1,0,0,0-6.741-.9,24.605,24.605,0,0,0-6.714.9,23.389,23.389,0,0,0-2.742-1.624,14.176,14.176,0,0,0-2.075-.873,7.089,7.089,0,0,0-1.446-.286,5.2,5.2,0,0,0-.859-.028,1.734,1.734,0,0,0-.272.054,9.539,9.539,0,0,0-.272,7.123,10.217,10.217,0,0,0-2.756,7.205,19.422,19.422,0,0,0,.383,4,12.727,12.727,0,0,0,1.038,3.111,9.705,9.705,0,0,0,1.624,2.32A9.962,9.962,0,0,0,16,39.123a12.419,12.419,0,0,0,2.374,1.106,19.4,19.4,0,0,0,2.512.709,24.8,24.8,0,0,0,2.606.383,5.462,5.462,0,0,0-2.238,4.858v4.271a22.864,22.864,0,0,1-2.435-.873,23.5,23.5,0,1,1,25.732-5.032Z"/></svg>