<svg xmlns="http://www.w3.org/2000/svg" viewBox="0 0 42.406 41.121"><defs><style>.a{fill:#e00303;}</style></defs><path class="a" d="M39.836,0H2.57A3.228,3.228,0,0,0,0,2.57V38.551a3.228,3.228,0,0,0,2.57,2.57H39.836a3.228,3.228,0,0,0,2.57-2.57V2.57A3.228,3.228,0,0,0,39.836,0Zm1.285,38.551a2.274,2.274,0,0,1-1.285,1.285H2.57a2.274,2.274,0,0,1-1.285-1.285V2.57A2.274,2.274,0,0,1,2.57,1.285H39.836A2.274,2.274,0,0,1,41.121,2.57ZM21.2,7.068a2.57,2.57,0,1,0,2.57,2.57A2.573,2.573,0,0,0,21.2,7.068Zm0,3.855a1.285,1.285,0,1,1,1.285-1.285A1.287,1.287,0,0,1,21.2,10.923Zm10.28,16.705a2.57,2.57,0,1,0,2.57,2.57A2.573,2.573,0,0,0,31.483,27.628Zm0,3.855A1.285,1.285,0,1,1,32.768,30.2,1.287,1.287,0,0,1,31.483,31.483ZM10.923,21.2a2.57,2.57,0,1,0,2.57,2.57A2.573,2.573,0,0,0,10.923,21.2Zm0,3.855a1.285,1.285,0,1,1,1.285-1.285A1.287,1.287,0,0,1,10.923,25.058Zm0-5.783a.643.643,0,0,0,.643-.643V7.068a.643.643,0,0,0-1.285,0V18.633A.643.643,0,0,0,10.923,19.275Zm0,9a.643.643,0,0,0-.643.643v3.855a.643.643,0,1,0,1.285,0V28.913A.643.643,0,0,0,10.923,28.27ZM21.2,14.135a.643.643,0,0,0-.643.643v17.99a.643.643,0,0,0,1.285,0V14.778A.643.643,0,0,0,21.2,14.135ZM31.483,25.7a.643.643,0,0,0,.643-.643V7.068a.643.643,0,0,0-1.285,0v17.99A.643.643,0,0,0,31.483,25.7Z"/></svg>