<svg xmlns="http://www.w3.org/2000/svg" viewBox="0 0 55.894 55.894"><defs><style>.a{fill:#fff;}</style></defs><path class="a" d="M46.506,0H9.389A9.417,9.417,0,0,0,0,9.389V46.506a9.417,9.417,0,0,0,9.389,9.389H46.506a9.417,9.417,0,0,0,9.389-9.389V9.389A9.417,9.417,0,0,0,46.506,0ZM20.96,45.414H13.974V20.96H20.96ZM17.467,17.467a3.493,3.493,0,1,1,3.493-3.493A3.492,3.492,0,0,1,17.467,17.467ZM45.414,45.414H38.427V31.441a3.493,3.493,0,0,0-6.987,0V45.414H24.454V20.96h6.987V25.3c1.441-1.979,3.644-4.337,6.113-4.337,4.341,0,7.86,3.911,7.86,8.734Z"/></svg>