<svg xmlns="http://www.w3.org/2000/svg" xmlns:xlink="http://www.w3.org/1999/xlink" viewBox="0 0 268 42"><defs><style>.a,.e{fill:none;}.b{clip-path:url(#a);}.c,.f,.g,.i{fill:#e00303;}.c{font-size:40px;font-family:HelveticaNeue-Light, Helvetica Neue;font-weight:300;}.c,.f{letter-spacing:0.04em;}.d{font-family:HelveticaNeue-Thin, Helvetica Neue;font-weight:200;fill:#000;}.f{font-size:44px;font-family:HelveticaNeue-Medium, Helvetica Neue;font-weight:500;}.g{stroke:#e00303;stroke-width:0.4px;}.h,.i{stroke:none;}</style><clipPath id="a"><rect class="a" width="268" height="42" transform="translate(140 44)"/></clipPath></defs><g transform="translate(-140 -44)"><g class="b"><text class="c" transform="translate(175 77)"><tspan x="0" y="0">phraim</tspan><tspan class="d" y="0">Ilunga</tspan></text><g class="e" transform="translate(140 44)"><path class="h" d="M0,0H28.125V5.063H34V41H0Z"/><path class="i" d="M 2 2 L 2 39 L 32 39 L 32 7.0625 L 28.125 7.0625 L 26.125 7.0625 L 26.125 5.0625 L 26.125 2 L 2 2 M 0 0 L 28.125 0 L 28.125 5.0625 L 34 5.0625 L 34 41 L 0 41 L 0 0 Z"/></g><text class="f" transform="translate(144 33)"><tspan x="0" y="43">e</tspan></text><path class="g" d="M-171.418,290.033v3.461h3.518l-1.395-1.372Z" transform="translate(341 -245.391)"/><rect class="a" width="267" height="42" transform="translate(140 44)"/></g></g></svg>