<svg xmlns="http://www.w3.org/2000/svg" viewBox="0 0 48.002 32"><defs><style>.a{fill:#fff;}</style></defs><path class="a" d="M3.131,9.83l20,10.744a5.775,5.775,0,0,0,4.834,0c.673-.36,18.7-10.045,20-10.744S50.5,6.4,48.11,6.4H2.991c-2.392,0-1.16,2.728.142,3.43ZM48.571,15.7c-1.48.77-19.7,10.264-20.606,10.739a4.542,4.542,0,0,1-2.417.53,4.558,4.558,0,0,1-2.417-.53c-.907-.473-19.023-9.97-20.5-10.742-1.04-.543-1.03.093-1.03.583V35.733A3.247,3.247,0,0,0,4.266,38.4H46.935A3.247,3.247,0,0,0,49.6,35.733V16.287c0-.49.01-1.128-1.032-.583Z" transform="translate(-1.599 -6.4)"/></svg>