<svg xmlns="http://www.w3.org/2000/svg" viewBox="0 0 86.521 91.193"><defs><style>.a{fill:#fff;}</style></defs><path class="a" d="M45.6,47.2a24.888,24.888,0,0,1,7.618,1.3L22.433,2.316A1.6,1.6,0,0,0,21.1,1.6H3.083a.744.744,0,0,0-.617,1.159L34.034,50.113A25.017,25.017,0,0,1,45.6,47.194ZM88.117,1.6H70.1a1.6,1.6,0,0,0-1.333.716L49.4,31.365l10.133,15.2,29.2-43.8A.745.745,0,0,0,88.114,1.6ZM45.6,52.263A20.265,20.265,0,1,0,65.867,72.528,20.268,20.268,0,0,0,45.6,52.263ZM56.3,73.12a.672.672,0,0,1-.111,1.054.869.869,0,0,0-.247,1.159.67.67,0,0,1-.329,1.007.865.865,0,0,0-.481,1.083.674.674,0,0,1-.526.918.87.87,0,0,0-.693.956.673.673,0,0,1-.709.785.869.869,0,0,0-.88.792.676.676,0,0,1-.855.624.874.874,0,0,0-1.029.592.673.673,0,0,1-.969.431.864.864,0,0,0-1.124.364.673.673,0,0,1-1.039.218.861.861,0,0,0-1.175.12.671.671,0,0,1-1.058,0A.859.859,0,0,0,43.9,83.1a.675.675,0,0,1-1.039-.218.863.863,0,0,0-1.124-.364.675.675,0,0,1-.969-.431A.871.871,0,0,0,39.74,81.5a.667.667,0,0,1-.855-.624.862.862,0,0,0-.877-.795.671.671,0,0,1-.709-.785.866.866,0,0,0-.693-.956.669.669,0,0,1-.526-.918.863.863,0,0,0-.481-1.083.676.676,0,0,1-.329-1.007.866.866,0,0,0-.247-1.159.674.674,0,0,1-.111-1.054.863.863,0,0,0,0-1.184.672.672,0,0,1,.111-1.054.869.869,0,0,0,.247-1.159.67.67,0,0,1,.329-1.007.865.865,0,0,0,.481-1.083.674.674,0,0,1,.526-.918.87.87,0,0,0,.693-.956.673.673,0,0,1,.709-.785.869.869,0,0,0,.88-.792.676.676,0,0,1,.855-.624.874.874,0,0,0,1.029-.592.673.673,0,0,1,.969-.431.864.864,0,0,0,1.124-.364.673.673,0,0,1,1.039-.218.861.861,0,0,0,1.175-.12.671.671,0,0,1,1.058,0,.859.859,0,0,0,1.175.12.675.675,0,0,1,1.039.218.863.863,0,0,0,1.124.364.675.675,0,0,1,.969.431.871.871,0,0,0,1.029.592.667.667,0,0,1,.855.624.862.862,0,0,0,.88.792.671.671,0,0,1,.709.785.866.866,0,0,0,.693.956.669.669,0,0,1,.526.918.863.863,0,0,0,.481,1.083.676.676,0,0,1,.329,1.007.866.866,0,0,0,.247,1.159.674.674,0,0,1,.111,1.054.874.874,0,0,0-.006,1.191Z" transform="translate(-2.336 -1.6)"/></svg>