<svg xmlns="http://www.w3.org/2000/svg" viewBox="0 0 45.079 41.632"><defs><style>.a{fill:#e00303;}.b{fill:#fff;stroke:#e00303;}</style></defs><g transform="translate(-146 -4982.489)"><path class="a" d="M34.5,1.6H7.085A2.282,2.282,0,0,0,4.8,3.885V40.437a2.284,2.284,0,0,0,2.285,2.285H34.5a2.284,2.284,0,0,0,2.285-2.285V3.885A2.284,2.284,0,0,0,34.5,1.6ZM32.214,38.152H9.369V6.169H32.214ZM27.645,10.738H13.938v4.569H27.645Zm0,18.276H13.938v4.569H27.645Zm0-9.138H13.938v4.569H27.645V19.876Z" transform="translate(141.2 4981.4)"/><path class="b" d="M23.5,4.258C20.474,2.052,18.317,2.1,17.5,2.232a.864.864,0,0,0-.56.357L5.925,17.784a3.917,3.917,0,0,0-.739,2.091l-.474,9a.9.9,0,0,0,1.216.885l8.41-3.216a3.921,3.921,0,0,0,1.77-1.358L27.116,9.994a.9.9,0,0,0,.16-.677c-.134-.842-.779-2.883-3.771-5.059ZM14.363,24.744l-3.269,1.262a.3.3,0,0,1-.354-.1,8.252,8.252,0,0,0-1.72-1.648,8.362,8.362,0,0,0-2.1-1.13.307.307,0,0,1-.2-.307l.2-3.5L7.8,18.116a6.836,6.836,0,0,1,4.533,1.6,6.848,6.848,0,0,1,2.914,3.821l-.88,1.21Z" transform="translate(163.289 4980.82)"/></g></svg>