<svg xmlns="http://www.w3.org/2000/svg" viewBox="0 0 48.656 43.25"><defs><style>.a{fill:#d6d5d5;}.b{fill:#e00303;}</style></defs><g transform="translate(-1004 -4987)"><path class="a" d="M10.891,11.286l.363-.363a1.027,1.027,0,0,0,0-1.452l-.627-.626a4.856,4.856,0,0,0,.47-1.128h.678A1.027,1.027,0,0,0,12.8,6.69V6.176A1.027,1.027,0,0,0,11.776,5.15h-.67a4.843,4.843,0,0,0-.454-1.119l.6-.6a1.027,1.027,0,0,0,0-1.452l-.363-.363a1.027,1.027,0,0,0-1.452,0l-.59.59a4.841,4.841,0,0,0-1.163-.487v-.69A1.027,1.027,0,0,0,6.658,0H6.145A1.027,1.027,0,0,0,5.117,1.027v.69A4.85,4.85,0,0,0,3.954,2.2l-.591-.591a1.026,1.026,0,0,0-1.452,0l-.363.363a1.027,1.027,0,0,0,0,1.452l.6.6A4.838,4.838,0,0,0,1.7,5.15H1.027A1.026,1.026,0,0,0,0,6.177V6.69A1.027,1.027,0,0,0,1.027,7.717H1.7a4.858,4.858,0,0,0,.471,1.128l-.627.626a1.027,1.027,0,0,0,0,1.452l.363.363a1.026,1.026,0,0,0,1.452,0l.63-.63a4.842,4.842,0,0,0,1.124.462v.658A1.027,1.027,0,0,0,6.144,12.8h.513a1.027,1.027,0,0,0,1.027-1.027v-.658a4.846,4.846,0,0,0,1.124-.462l.63.63a1.029,1.029,0,0,0,1.453,0ZM6.4,9.273A2.824,2.824,0,1,1,9.225,6.449,2.824,2.824,0,0,1,6.4,9.273Zm0-4.139A1.283,1.283,0,1,0,7.685,6.417,1.283,1.283,0,0,0,6.4,5.134Zm6.433,9.646a.622.622,0,1,0,.623.623A.622.622,0,0,0,12.834,14.78Zm2.607.008h-.325a2.367,2.367,0,0,0-.221-.543l.292-.292a.5.5,0,0,0,0-.7l-.176-.176a.5.5,0,0,0-.7,0l-.287.286a2.366,2.366,0,0,0-.564-.236v-.334a.5.5,0,0,0-.5-.5h-.249a.5.5,0,0,0-.5.5v.334a2.357,2.357,0,0,0-.564.236l-.287-.286a.5.5,0,0,0-.7,0l-.176.176a.5.5,0,0,0,0,.7l.292.292a2.335,2.335,0,0,0-.221.543h-.325a.5.5,0,0,0-.5.5v.249a.5.5,0,0,0,.5.5h.329a2.359,2.359,0,0,0,.228.547l-.3.3a.5.5,0,0,0,0,.7l.176.176a.5.5,0,0,0,.7,0l.306-.306a2.357,2.357,0,0,0,.545.224V18a.5.5,0,0,0,.5.5h.249a.5.5,0,0,0,.5-.5v-.319A2.322,2.322,0,0,0,14,17.458l.306.306a.5.5,0,0,0,.7,0l.176-.176a.5.5,0,0,0,0-.7l-.3-.3a2.382,2.382,0,0,0,.228-.547h.329a.5.5,0,0,0,.5-.5v-.249a.5.5,0,0,0-.5-.5Zm-2.607,2a1.37,1.37,0,1,1,1.369-1.37A1.369,1.369,0,0,1,12.834,16.788Z" transform="translate(1020 4991)"/><path class="b" d="M29.031,41.732H23.625v2.815l-5.406.9v1.8H34.326V45.56l-5.295-1.013ZM47.052,4H5.6A3.6,3.6,0,0,0,2,7.6V32.833a3.6,3.6,0,0,0,3.6,3.6H47.052a3.6,3.6,0,0,0,3.6-3.6V7.6A3.6,3.6,0,0,0,47.052,4ZM26.1,33.734a1.8,1.8,0,1,1,1.8-1.8A1.8,1.8,0,0,1,26.1,33.734Zm20.949-6.307H5.6V7.6H47.052Z" transform="translate(1002 4983)"/></g></svg>