<svg xmlns="http://www.w3.org/2000/svg" viewBox="0 0 55.894 55.894"><defs><style>.a{fill:#fff;}</style></defs><path class="a" d="M27.947,0A27.947,27.947,0,1,0,55.894,27.947,27.946,27.946,0,0,0,27.947,0Zm13.89,20.822q.021.461.021.927c0,9.471-7.209,20.393-20.393,20.393a20.277,20.277,0,0,1-10.987-3.221,14.548,14.548,0,0,0,1.71.1,14.377,14.377,0,0,0,8.9-3.069,7.172,7.172,0,0,1-6.7-4.976,7.165,7.165,0,0,0,3.237-.122,7.17,7.17,0,0,1-5.748-7.027v-.091a7.137,7.137,0,0,0,3.245.9,7.173,7.173,0,0,1-2.217-9.568,20.349,20.349,0,0,0,14.772,7.488A7.171,7.171,0,0,1,39.9,16.017a14.319,14.319,0,0,0,4.552-1.74A7.188,7.188,0,0,1,41.3,18.243a14.344,14.344,0,0,0,4.117-1.128,14.559,14.559,0,0,1-3.575,3.71Z"/></svg>