<svg xmlns="http://www.w3.org/2000/svg" viewBox="0 0 55.99 55.99"><defs><style>.a{fill:#e00303;}</style></defs><path class="a" d="M14.471,0,10.688,7.5,6.905,0H2.08L8.9,11.882l.04-.023V21h3.5V11.859l.04.023L19.3,0Z" transform="translate(1.561)"/><path class="a" d="M17.249,5.5A1.773,1.773,0,0,1,19,7.249v7a1.75,1.75,0,1,1-3.5,0v-7A1.773,1.773,0,0,1,17.249,5.5Zm0-3.5A5.264,5.264,0,0,0,12,7.249v7a5.249,5.249,0,1,0,10.5,0v-7A5.264,5.264,0,0,0,17.249,2Z" transform="translate(8.997 1.499)"/><path class="a" d="M27,2V15.777c-1.527,1.274-3.5,2.042-3.5-2.5V2H20V13.992h.005c.054,2.892.663,8.1,6.993,3.867V19.5h3.5V2H27Z" transform="translate(14.994 1.499)"/><path class="a" d="M27.75,22A1.753,1.753,0,0,0,26,23.75V25.5h3.5V23.75A1.753,1.753,0,0,0,27.75,22Z" transform="translate(19.492 16.493)"/><path class="a" d="M18,23.459v9.186c1.185,1.185,3.5,1.312,3.5-.437v-8.2c0-1.75-1.75-2.3-3.5-.548Z" transform="translate(13.495 16.784)"/><path class="a" d="M55.7,21.3a7.276,7.276,0,0,0-7.154-7.016C44.732,14.094,36,14,28.333,14s-17.02.094-20.836.285a7.441,7.441,0,0,0-4.979,2.082A7.437,7.437,0,0,0,.342,21.3C.113,25.408,0,26.9,0,28.951s.114,5.134.343,9.242a7.445,7.445,0,0,0,2.175,4.934A7.438,7.438,0,0,0,7.5,45.209c3.816.191,13.166.285,20.836.285s16.4-.094,20.215-.285A7.276,7.276,0,0,0,55.7,38.193q.286-5.134.287-9.242c0-2.738-.1-4.227-.287-7.65ZM10.5,42H7V24.5H3.5V21H14v3.5H10.5Zm14,0H21V40.357c-6.652,3.734-6.939.121-6.993-2.773H14V28h3.5v9.641c0,2.114,1.972,1.909,3.5.637V28h3.5Zm14-3.55c0,3.657-3.746,4.724-7,1.881V42h-3.5V21h3.5v5.686c3.5-3.5,7-2.187,7,1.312V38.445Zm14-6.948v1.75h-7v3.5a1.75,1.75,0,1,0,3.5,0V35h3.5v1.75a5.249,5.249,0,1,1-10.5,0v-7a5.249,5.249,0,1,1,10.5,0Z" transform="translate(0.001 10.496)"/></svg>